<svg xmlns="http://www.w3.org/2000/svg" style="display:none">
  <symbol id="i-github" viewBox="0 0 496 512"><path d="M165.9 397.4c0 2-2.3 3.6-5.2 3.6-3.3.3-5.6-1.3-5.6-3.6 0-2 2.3-3.6 5.2-3.6 3-.3 5.6 1.3 5.6 3.6zm-31.1-4.5c-.7 2 1.3 4.3 4.3 4.9 2.6 1 5.6 0 6.2-2s-1.3-4.3-4.3-5.2c-2.6-.7-5.5.3-6.2 2.3zm44.2-1.7c-2.9.7-4.9 2.6-4.6 4.9.3 2 2.9 3.3 5.9 2.6 2.9-.7 4.9-2.6 4.6-4.6-.3-1.9-3-3.2-5.9-2.9zM244.8 8C106.1 8 0 113.3 0 252c0 110.9 69.8 205.8 169.5 239.2 12.8 2.3 17.3-5.6 17.3-12.1 0-6.2-.3-40.4-.3-61.4 0 0-70 15-84.7-29.8 0 0-11.4-29.1-27.8-36.6 0 0-22.9-15.7 1.6-15.4 0 0 24.9 2 38.6 25.8 21.9 38.6 58.6 27.5 72.9 20.9 2.3-16 8.8-27.1 16-33.7-55.9-6.2-112.8-14.1-112.8-110.5 0-27.5 7.6-41.3 23.6-58.9-2.6-6.5-11.1-33.3 2.6-67.9 20.9-6.5 69 27 69 27 20-5.6 41.5-8.5 62.8-8.5s42.8 2.9 62.8 8.5c0 0 48.1-33.6 69-27 13.7 34.7 5.2 61.4 2.6 67.9 16 17.7 25.8 31.5 25.8 58.9 0 96.5-58.9 104.2-114.8 110.5 9.2 7.9 17 22.9 17 46.4 0 33.7-.3 75.4-.3 83.6 0 6.5 4.6 14.4 17.3 12.1C428.2 457.8 496 362.9 496 252 496 113.3 383.5 8 244.8 8z"/></symbol>
  <symbol id="i-linkedin" viewBox="0 0 448 512"><path d="M100.28 448H7.4V148.9h92.88zM53.79 108.1C24.09 108.1 0 83.5 0 53.8a53.79 53.79 0 0 1 107.58 0c0 29.7-24.1 54.3-53.79 54.3zM447.9 448h-92.68V302.4c0-34.7-.7-79.2-48.29-79.2-48.29 0-55.69 37.7-55.69 76.7V448h-92.78V148.9h89.08v40.8h1.3c12.4-23.5 42.69-48.3 87.83-48.3 94 0 111.28 61.9 111.28 142.3V448z"/></symbol>
  <symbol id="i-medium" viewBox="0 0 640 512"><path d="M180.5 74.262C80.813 74.262 0 155.633 0 256s80.819 181.738 180.5 181.738S361 356.373 361 256 280.191 74.262 180.5 74.262zm288.25 10.646c-49.845 0-90.245 76.619-90.245 171.095s40.406 171.095 90.245 171.095 90.251-76.619 90.251-171.095-40.412-171.095-90.251-171.095zm139.506 17.821c-17.526 0-31.735 68.628-31.735 153.274s14.2 153.274 31.735 153.274S640 340.631 640 256c0-84.624-14.215-153.271-31.744-153.271z"/></symbol>
  <symbol id="i-envelope" viewBox="0 0 512 512"><path d="M48 64C21.5 64 0 85.5 0 112c0 15.1 7.1 29.3 19.2 38.4L236.8 313.6c11.4 8.5 27 8.5 38.4 0L492.8 150.4c12.1-9.1 19.2-23.3 19.2-38.4c0-26.5-21.5-48-48-48H48zM0 176V384c0 35.3 28.7 64 64 64H448c35.3 0 64-28.7 64-64V176L294.4 339.2c-22.8 17.1-54 17.1-76.8 0L0 176z"/></symbol>
  <symbol id="i-download" viewBox="0 0 512 512"><path d="M288 32c0-17.7-14.3-32-32-32s-32 14.3-32 32V274.7l-73.4-73.4c-12.5-12.5-32.8-12.5-45.3 0s-12.5 32.8 0 45.3l128 128c12.5 12.5 32.8 12.5 45.3 0l128-128c12.5-12.5 12.5-32.8 0-45.3s-32.8-12.5-45.3 0L288 274.7V32zM64 352c-35.3 0-64 28.7-64 64v32c0 35.3 28.7 64 64 64H448c35.3 0 64-28.7 64-64V416c0-35.3-28.7-64-64-64H346.5l-45.3 45.3c-25 25-65.5 25-90.5 0L165.5 352H64zm368 56a24 24 0 1 1 0 48 24 24 0 1 1 0-48z"/></symbol>
  <symbol id="i-chevron-down" viewBox="0 0 512 512"><path d="M233.4 406.6c12.5 12.5 32.8 12.5 45.3 0l192-192c12.5-12.5 12.5-32.8 0-45.3s-32.8-12.5-45.3 0L256 338.7 86.6 169.4c-12.5-12.5-32.8-12.5-45.3 0s-12.5 32.8 0 45.3l192 192z"/></symbol>
  <symbol id="i-map-marker" viewBox="0 0 384 512"><path d="M215.7 499.2C267 435 384 279.4 384 192C384 86 298 0 192 0S0 86 0 192c0 87.4 117 243 168.3 307.2c12.3 15.3 35.1 15.3 47.4 0zM192 128a64 64 0 1 1 0 128 64 64 0 1 1 0-128z"/></symbol>
  <symbol id="i-building" viewBox="0 0 384 512"><path d="M48 0C21.5 0 0 21.5 0 48V464c0 26.5 21.5 48 48 48h96V432c0-26.5 21.5-48 48-48s48 21.5 48 48v80h96c26.5 0 48-21.5 48-48V48c0-26.5-21.5-48-48-48H48zM64 240c0-8.8 7.2-16 16-16h32c8.8 0 16 7.2 16 16v32c0 8.8-7.2 16-16 16H80c-8.8 0-16-7.2-16-16V240zm112-16h32c8.8 0 16 7.2 16 16v32c0 8.8-7.2 16-16 16H176c-8.8 0-16-7.2-16-16V240c0-8.8 7.2-16 16-16zm80 16c0-8.8 7.2-16 16-16h32c8.8 0 16 7.2 16 16v32c0 8.8-7.2 16-16 16H272c-8.8 0-16-7.2-16-16V240zM80 96h32c8.8 0 16 7.2 16 16v32c0 8.8-7.2 16-16 16H80c-8.8 0-16-7.2-16-16V112c0-8.8 7.2-16 16-16zm80 16c0-8.8 7.2-16 16-16h32c8.8 0 16 7.2 16 16v32c0 8.8-7.2 16-16 16H176c-8.8 0-16-7.2-16-16V112zM272 96h32c8.8 0 16 7.2 16 16v32c0 8.8-7.2 16-16 16H272c-8.8 0-16-7.2-16-16V112c0-8.8 7.2-16 16-16z"/></symbol>
  <symbol id="i-language" viewBox="0 0 640 512"><path d="M0 128C0 92.7 28.7 64 64 64H256h48 16H576c35.3 0 64 28.7 64 64V384c0 35.3-28.7 64-64 64H320 304 256 64c-35.3 0-64-28.7-64-64V128zm320 0V384H576V128H320zM178.3 175.9c-3.2-7.2-10.4-11.9-18.3-11.9s-15.1 4.7-18.3 11.9l-64 144c-4.5 10.1.1 21.9 10.2 26.4s21.9-.1 26.4-10.2l8.9-20.1h73.6l8.9 20.1c4.5 10.1 16.3 14.6 26.4 10.2s14.6-16.3 10.2-26.4l-64-144zM160 233.2L179 276H141l19-42.8zM480 320h-64V256H480c17.7 0 32-14.3 32-32s-14.3-32-32-32H416c-8.8 0-16 7.2-16 16V336c0 8.8 7.2 16 16 16h64c17.7 0 32-14.3 32-32s-14.3-32-32-32z"/></symbol>
  <symbol id="i-certificate" viewBox="0 0 512 512"><path d="M211 7.3C205 1 196-.4 188.3 2.6L123.3 36 58.3 2.6C50.6-.4 41.8 1 35.8 7.3S27.1 22.2 30.5 30l46.4 103.7C34.5 157.8 0 202 0 256c0 70.7 57.3 128 128 128h52.3l-4.8 12.1-36.8 0c-8.8 0-16 7.2-16 16s7.2 16 16 16h36.8l-4.8 12.1c-3.4 8.5-.3 18.2 7.3 23.1s17.6 3.3 23.7-3.8L256 395.8l54.3 63.7c6.1 7.1 16.1 8.7 23.7 3.8s10.7-14.6 7.3-23.1l-4.8-12.1H373c8.8 0 16-7.2 16-16s-7.2-16-16-16l-36.8 0-4.8-12.1H384c70.7 0 128-57.3 128-128c0-54-33.5-100.2-80.9-118.3L477.5 30c3.4-7.8 1.6-16.8-4.4-23S461.4-.4 453.7 2.6L388.7 36l-65-33.4C316-.4 307.2 1 301.2 7.3s-7 16.8-3.6 24.5L343.4 128H168.6L214.4 31.9c3.4-7.8 1.6-16.8-3.4-24.5zM256 192a64 64 0 1 1 0 128 64 64 0 1 1 0-128z"/></symbol>
  <symbol id="i-graduation-cap" viewBox="0 0 640 512"><path d="M320 32L4 176l144.5 66.8L320 177.2 495.5 242.8 640 176 320 32zM128 278.4V390.4L320 480l192-89.6V278.4L320 368 128 278.4zM574.2 336c1.8-7.6 2.8-15.3 3.4-23.2l53.4-24.7v95.5c-8.5 3.7-14.5 12.2-14.5 22.1 0 13.3 10.7 24 24 24s24-10.7 24-24c0-9.8-5.9-18.3-14.3-22V264.2L576 300.7v35.3h-1.8z"/></symbol>
  <symbol id="i-code" viewBox="0 0 640 512"><path d="M392.8 1.2c-17-4.9-34.7 5-39.6 22l-128 448c-4.9 17 5 34.7 22 39.6s34.7-5 39.6-22l128-448c4.9-17-5-34.7-22-39.6zm80.6 120.1c-12.5 12.5-12.5 32.8 0 45.3L562.7 256l-89.4 89.4c-12.5 12.5-12.5 32.8 0 45.3s32.8 12.5 45.3 0l112-112c12.5-12.5 12.5-32.8 0-45.3l-112-112c-12.5-12.5-32.8-12.5-45.3 0zm-306.7 0c-12.5-12.5-32.8-12.5-45.3 0l-112 112c-12.5 12.5-12.5 32.8 0 45.3l112 112c12.5 12.5 32.8 12.5 45.3 0s12.5-32.8 0-45.3L77.3 256l89.4-89.4c12.5-12.5 12.5-32.8 0-45.3z"/></symbol>
  <symbol id="i-layer-group" viewBox="0 0 576 512"><path d="M264.5 5.2c14.9-6.9 32.1-6.9 47 0l218.6 101c8.5 3.9 13.9 12.4 13.9 21.8s-5.4 17.9-13.9 21.8l-218.6 101c-14.9 6.9-32.1 6.9-47 0L45.9 149.8C37.4 145.8 32 137.3 32 128s5.4-17.9 13.9-21.8L264.5 5.2zM476.9 209.6l53.2 24.6c8.5 3.9 13.9 12.4 13.9 21.8s-5.4 17.9-13.9 21.8l-218.6 101c-14.9 6.9-32.1 6.9-47 0L45.9 277.8C37.4 273.8 32 265.3 32 256s5.4-17.9 13.9-21.8l53.2-24.6 152 70.2c23.4 10.8 50.4 10.8 73.8 0l152-70.2zm-152 198.2l152-70.2 53.2 24.6c8.5 3.9 13.9 12.4 13.9 21.8s-5.4 17.9-13.9 21.8l-218.6 101c-14.9 6.9-32.1 6.9-47 0L45.9 405.8C37.4 401.8 32 393.3 32 384s5.4-17.9 13.9-21.8l53.2-24.6 152 70.2c23.4 10.8 50.4 10.8 73.8 0z"/></symbol>
  <symbol id="i-cloud" viewBox="0 0 640 512"><path d="M0 336c0 79.5 64.5 144 144 144H512c70.7 0 128-57.3 128-128c0-61.9-44-113.6-102.4-125.4c4.1-10.7 6.4-22.4 6.4-34.6c0-53-43-96-96-96c-19.7 0-38.1 6-53.3 16.2C367 64.2 315.3 32 256 32C167.6 32 96 103.6 96 192c0 2.7.1 5.4.2 8C40.2 219.8 0 273.2 0 336z"/></symbol>
  <symbol id="i-database" viewBox="0 0 448 512"><path d="M448 80v48c0 44.2-100.3 80-224 80S0 172.2 0 128V80C0 35.8 100.3 0 224 0S448 35.8 448 80zM393.2 214.7c20.8-7.4 39.9-16.9 54.8-28.6V288c0 44.2-100.3 80-224 80S0 332.2 0 288V186.1c14.9 11.8 34 21.2 54.8 28.6C99.7 230.7 159.5 240 224 240s124.3-9.3 169.2-25.3zM0 346.1c14.9 11.8 34 21.2 54.8 28.6C99.7 390.7 159.5 400 224 400s124.3-9.3 169.2-25.3c20.8-7.4 39.9-16.9 54.8-28.6V432c0 44.2-100.3 80-224 80S0 476.2 0 432V346.1z"/></symbol>
  <symbol id="i-brain" viewBox="0 0 512 512"><path d="M184 0c30.9 0 56 25.1 56 56V456c0 30.9-25.1 56-56 56c-28.9 0-52.7-21.9-55.7-50.1c-5.2 1.4-10.7 2.1-16.3 2.1c-35.3 0-64-28.7-64-64c0-7.4 1.3-14.6 3.6-21.2C21.4 367.4 0 338.2 0 304c0-31.9 18.7-59.5 45.8-72.3C37.1 220.8 32 207 32 192c0-30.7 21.6-56.3 50.4-62.6C80.1 123.4 79 117.3 79 111c0-32.3 24.1-58.9 55.3-63C137.7 20 159 0 184 0zm144 0c25 0 46.3 20 49.7 47C408.9 52.1 433 78.7 433 111c0 6.3-1.1 12.4-3.4 18.4C458.4 135.7 480 161.3 480 192c0 15-5.1 28.8-13.8 39.7C493.3 244.5 512 272.1 512 304c0 34.2-21.4 63.4-51.6 74.8c2.3 6.6 3.6 13.8 3.6 21.2c0 35.3-28.7 64-64 64c-5.6 0-11.1-.7-16.3-2.1c-3 28.2-26.8 50.1-55.7 50.1c-30.9 0-56-25.1-56-56V56c0-30.9 25.1-56 56-56z"/></symbol>
  <symbol id="i-tools" viewBox="0 0 512 512"><path d="M78.6 5C69.1-2.4 55.6-1.5 47.3 7L7 47.3C-1.5 55.6-2.4 69.1 5 78.6l100.6 114.8L200 277.3l34.3-34.3-85.8-168.1L78.6 5zm99.8 213L100 296l16 16 78.4-78.4-16-16zm103.2 17L352 164.6 276.6 352 281.6 235zM496.4 432.5l-64.3-64.3L360 440.3 424.3 504.6c6.2 6.2 16.4 6.2 22.6 0l49.5-49.5c6.2-6.2 6.2-16.4 0-22.6zM244.7 301.3l-34.3 34.3L294.3 429.5 400 512l-93.9-93.9L244.7 301.3zM207.3 164.6L164.6 207.3l59.6 59.6 42.7-42.7-59.6-59.6z"/></symbol>
  <symbol id="i-robot" viewBox="0 0 640 512"><path d="M320 0c17.7 0 32 14.3 32 32V96H480c35.3 0 64 28.7 64 64V448c0 35.3-28.7 64-64 64H160c-35.3 0-64-28.7-64-64V160c0-35.3 28.7-64 64-64H288V32c0-17.7 14.3-32 32-32zM208 384c-8.8 0-16 7.2-16 16s7.2 16 16 16h32c8.8 0 16-7.2 16-16s-7.2-16-16-16H208zm96 0c-8.8 0-16 7.2-16 16s7.2 16 16 16h32c8.8 0 16-7.2 16-16s-7.2-16-16-16H304zm96 0c-8.8 0-16 7.2-16 16s7.2 16 16 16h32c8.8 0 16-7.2 16-16s-7.2-16-16-16H400zM264 256a40 40 0 1 0-80 0 40 40 0 1 0 80 0zm152 40a40 40 0 1 0 0-80 40 40 0 1 0 0 80zM48 224H16c-8.8 0-16 7.2-16 16v64c0 8.8 7.2 16 16 16H48c8.8 0 16-7.2 16-16V240c0-8.8-7.2-16-16-16zm576 0c-8.8 0-16 7.2-16 16v64c0 8.8 7.2 16 16 16h32c8.8 0 16-7.2 16-16V240c0-8.8-7.2-16-16-16H624z"/></symbol>
  <symbol id="i-laptop-code" viewBox="0 0 640 512"><path d="M64 96c0-35.3 28.7-64 64-64H512c35.3 0 64 28.7 64 64V352H512V96H128V352H64V96zM0 403.2C0 392.6 8.6 384 19.2 384H620.8c10.6 0 19.2 8.6 19.2 19.2c0 42.4-34.4 76.8-76.8 76.8H76.8C34.4 480 0 445.6 0 403.2zM281 209l-31 31 31 31c9.4 9.4 9.4 24.6 0 33.9s-24.6 9.4-33.9 0l-48-48c-9.4-9.4-9.4-24.6 0-33.9l48-48c9.4-9.4 24.6-9.4 33.9 0s9.4 24.6 0 33.9zM393 175l48 48c9.4 9.4 9.4 24.6 0 33.9l-48 48c-9.4 9.4-24.6 9.4-33.9 0s-9.4-24.6 0-33.9l31-31-31-31c-9.4-9.4-9.4-24.6 0-33.9s24.6-9.4 33.9 0z"/></symbol>
  <symbol id="i-wifi" viewBox="0 0 640 512"><path d="M54.2 202.9C123.2 136.7 216.8 96 320 96s196.8 40.7 265.8 106.9c12.8 12.2 33 11.8 45.2-.9s11.8-33-.9-45.2C549.7 79.5 440.4 32 320 32S90.3 79.5 9.8 156.7C-2.9 168.8-3.3 189 9 201.2s33 11.8 45.2-.9zM320 256c56.8 0 108.6 21.1 148.2 56c13.3 11.7 33.5 10.4 45.2-2.8s10.4-33.5-2.8-45.2C462.6 220.2 394.5 192 320 192s-142.6 28.2-190.6 72c-13.3 11.7-14.5 31.9-2.8 45.2s31.9 14.5 45.2 2.8c39.5-34.9 91.3-56 148.2-56zm64 160a64 64 0 1 0-128 0 64 64 0 1 0 128 0z"/></symbol>
  <symbol id="i-mobile" viewBox="0 0 384 512"><path d="M16 64C16 28.7 44.7 0 80 0H304c35.3 0 64 28.7 64 64V448c0 35.3-28.7 64-64 64H80c-35.3 0-64-28.7-64-64V64zM224 448a32 32 0 1 0-64 0 32 32 0 1 0 64 0zM304 64H80V384H304V64z"/></symbol>
  <symbol id="i-star" viewBox="0 0 576 512"><path d="M316.9 18C311.6 7 300.4 0 288.1 0s-23.4 7-28.8 18L195 150.3 51.4 171.5c-12 1.8-22 10.2-25.7 21.7s-.7 24.2 7.9 32.7L137.8 329 113.2 474.7c-2 12 3 24.2 12.9 31.3s23 8 33.8 2.3l128.3-68.5 128.3 68.5c10.8 5.7 23.9 4.9 33.8-2.3s14.9-19.3 12.9-31.3L searching438.5 329 542.7 225.9c8.6-8.5 11.7-21.2 7.9-32.7s-13.7-19.9-25.7-21.7L381.2 150.3 316.9 18z"/></symbol>
  <symbol id="i-briefcase" viewBox="0 0 512 512"><path d="M184 48H328c4.4 0 8 3.6 8 8V96H176V56c0-4.4 3.6-8 8-8zm-56 8V96H64C28.7 96 0 124.7 0 160v96H192 320 512V160c0-35.3-28.7-64-64-64H384V56c0-30.9-25.1-56-56-56H184c-30.9 0-56 25.1-56 56zM512 288H320v32c0 17.7-14.3 32-32 32H224c-17.7 0-32-14.3-32-32V288H0V416c0 35.3 28.7 64 64 64H448c35.3 0 64-28.7 64-64V288z"/></symbol>
  <symbol id="i-dumbbell" viewBox="0 0 640 512"><path d="M96 64c0-17.7 14.3-32 32-32h32c17.7 0 32 14.3 32 32V224H384V64c0-17.7 14.3-32 32-32h32c17.7 0 32 14.3 32 32V224h64V160c0-17.7 14.3-32 32-32s32 14.3 32 32v192c0 17.7-14.3 32-32 32s-32-14.3-32-32V288H480V448c0 17.7-14.3 32-32 32H416c-17.7 0-32-14.3-32-32V288H192V448c0 17.7-14.3 32-32 32H128c-17.7 0-32-14.3-32-32V288H32c-17.7 0-32-14.3-32-32V160c0-17.7 14.3-32 32-32s32 14.3 32 32v64H96V64z"/></symbol>
  <symbol id="i-shield" viewBox="0 0 512 512"><path d="M256 0c4.6 0 9.2 1 13.4 2.9L457.7 82.8c22 9.3 38.4 31 38.3 57.2c-.5 99.2-41.3 280.7-213.6 363.2c-16.7 8-36.1 8-52.8 0C57.3 420.7 16.5 239.2 16 140c-.1-26.2 16.3-47.9 38.3-57.2L242.7 2.9C246.8 1 251.4 0 256 0z"/></symbol>
  <symbol id="i-gavel" viewBox="0 0 512 512"><path d="M318.6 9.4c-12.5-12.5-32.8-12.5-45.3 0l-120 120c-12.5 12.5-12.5 32.8 0 45.3l16 16c12.5 12.5 32.8 12.5 45.3 0l4-4L340.7 308.7l-4 4c-12.5 12.5-12.5 32.8 0 45.3l16 16c12.5 12.5 32.8 12.5 45.3 0l120-120c12.5-12.5 12.5-32.8 0-45.3l-16-16c-12.5-12.5-32.8-12.5-45.3 0l-4 4L330.7 75.3l4-4c12.5-12.5 12.5-32.8 0-45.3l-16-16zm-152 288c-12.5-12.5-32.8-12.5-45.3 0l-112 112c-12.5 12.5-12.5 32.8 0 45.3l48 48c12.5 12.5 32.8 12.5 45.3 0l112-112c12.5-12.5 12.5-32.8 0-45.3l-48-48z"/></symbol>
  <symbol id="i-hard-hat" viewBox="0 0 576 512"><path d="M256 32c-17.7 0-32 14.3-32 32v2.3C154.2 80.7 96 149.1 96 232v49.1L36.9 350.5C13.4 381.5 0 418.9 0 457.6V464c0 26.5 21.5 48 48 48H528c26.5 0 48-21.5 48-48v-6.4c0-38.8-13.4-76.1-36.9-107.1L480 281.1V232c0-82.9-58.2-151.3-128-165.7V64c0-17.7-14.3-32-32-32H256zM208 168h160c13.3 0 24 10.7 24 24s-10.7 24-24 24H208c-13.3 0-24-10.7-24-24s10.7-24 24-24z"/></symbol>
  <symbol id="i-heart-hand" viewBox="0 0 576 512"><path d="M148 76.6C148 34.3 182.3 0 224.6 0c20.3 0 39.8 8.1 54.1 22.4l9.3 9.3 9.3-9.3C311.6 8.1 331.1 0 351.4 0 393.7 0 428 34.3 428 76.6c0 20.3-8.1 39.8-22.4 54.1L288 248.3 170.4 130.7C156.1 116.4 148 96.9 148 76.6zM568.2 336.3c13.1 17.8 9.3 42.8-8.5 55.9L433.1 485.5c-23.4 17.2-51.6 26.5-80.7 26.5H192 32c-17.7 0-32-14.3-32-32V416c0-17.7 14.3-32 32-32H68.8l44.9-36c22.7-18.2 50.9-28 80-28H272c26.5 0 48 21.5 48 48s-21.5 48-48 48H227.3c-8.8 0-16 7.2-16 16s7.2 16 16 16H352c14.3 0 28.3-3.5 40.8-10.2l112-59.5c17.8-9.5 40-3.7 49.4 14.2z"/></symbol>
  <symbol id="i-arrow-right" viewBox="0 0 448 512"><path d="M438.6 278.6c12.5-12.5 12.5-32.8 0-45.3l-160-160c-12.5-12.5-32.8-12.5-45.3 0s-12.5 32.8 0 45.3L338.8 224 32 224c-17.7 0-32 14.3-32 32s14.3 32 32 32l306.7 0L233.4 393.4c-12.5 12.5-12.5 32.8 0 45.3s32.8 12.5 45.3 0l160-160z"/></symbol>
  <symbol id="i-external-link" viewBox="0 0 512 512"><path d="M320 0c-17.7 0-32 14.3-32 32s14.3 32 32 32h82.7L201.4 265.4c-12.5 12.5-12.5 32.8 0 45.3s32.8 12.5 45.3 0L448 109.3V192c0 17.7 14.3 32 32 32s32-14.3 32-32V32c0-17.7-14.3-32-32-32H320zM80 32C35.8 32 0 67.8 0 112V432c0 44.2 35.8 80 80 80H400c44.2 0 80-35.8 80-80V320c0-17.7-14.3-32-32-32s-32 14.3-32 32V432c0 8.8-7.2 16-16 16H80c-8.8 0-16-7.2-16-16V112c0-8.8 7.2-16 16-16H192c17.7 0 32-14.3 32-32s-14.3-32-32-32H80z"/></symbol>
  <symbol id="i-devto" viewBox="0 0 24 24"><path d="M7.42 10.05c-.18-.16-.46-.23-.84-.23H6l.02 2.44.04 2.45.56-.02c.41 0 .63-.07.83-.26.24-.24.26-.36.26-2.2 0-1.91-.02-1.96-.29-2.18zM0 4.94v14.12h24V4.94H0zM8.56 15.3c-.44.58-1.06.77-2.53.77H4.71V8.53h1.4c1.67 0 2.16.18 2.6.9.27.43.29.6.32 2.57.05 2.23-.02 2.73-.47 3.3zm5.09-5.47h-2.47v1.77h1.52v1.28l-.72.04-.75.03v1.77l1.22.03 1.2.04v1.28h-1.6c-1.53 0-1.6-.01-1.87-.3l-.3-.28v-3.16c0-3.02.01-3.18.25-3.48.23-.31.25-.31 1.88-.31h1.64v1.3zm4.68 5.45c-.17.43-.64.79-1 .79-.18 0-.45-.15-.67-.39-.32-.32-.45-.63-.82-2.08l-.9-3.39-.45-1.67h.76c.4 0 .75.02.75.05 0 .06 1.16 4.54 1.26 4.83.04.15.32-.7.73-2.3l.66-2.52.74-.04c.4-.02.73 0 .73.04 0 .14-1.67 6.38-1.8 6.68z"/></symbol>
  <symbol id="i-file-pdf" viewBox="0 0 512 512"><path d="M0 64C0 28.7 28.7 0 64 0H224V128c0 17.7 14.3 32 32 32H384V304H176c-35.3 0-64 28.7-64 64V512H64c-35.3 0-64-28.7-64-64V64zm384 64H256V0L384 128zM176 352h32c30.9 0 56 25.1 56 56s-25.1 56-56 56H192v32c0 8.8-7.2 16-16 16s-16-7.2-16-16V448 368c0-8.8 7.2-16 16-16zm32 80c13.3 0 24-10.7 24-24s-10.7-24-24-24H192v48h16zm96-80h32c26.5 0 48 21.5 48 48v64c0 26.5-21.5 48-48 48H304c-8.8 0-16-7.2-16-16V368c0-8.8 7.2-16 16-16zm32 128c8.8 0 16-7.2 16-16V400c0-8.8-7.2-16-16-16H320v96h16zm80-112c0-8.8 7.2-16 16-16h48c8.8 0 16 7.2 16 16s-7.2 16-16 16H448v32h32c8.8 0 16 7.2 16 16s-7.2 16-16 16H432c-8.8 0-16-7.2-16-16V368z"/></symbol>
</svg>
